<?xml version="1.0" encoding="UTF-8" standalone="no"?>
<svg
   xmlns:dc="http://purl.org/dc/elements/1.1/"
   xmlns:cc="http://creativecommons.org/ns#"
   xmlns:rdf="http://www.w3.org/1999/02/22-rdf-syntax-ns#"
   xmlns:svg="http://www.w3.org/2000/svg"
   xmlns="http://www.w3.org/2000/svg"
   xmlns:sodipodi="http://sodipodi.sourceforge.net/DTD/sodipodi-0.dtd"
   xmlns:inkscape="http://www.inkscape.org/namespaces/inkscape"
   width="2629.04"
   height="1371.18"
   version="1.1"
   id="svg3813"
   sodipodi:docname="logo.svg"
   inkscape:version="0.92.4 (5da689c313, 2019-01-14)">
  <metadata
     id="metadata3817">
    <rdf:RDF>
      <cc:Work
         rdf:about="">
        <dc:format>image/svg+xml</dc:format>
        <dc:type
           rdf:resource="http://purl.org/dc/dcmitype/StillImage" />
        <dc:title></dc:title>
      </cc:Work>
    </rdf:RDF>
  </metadata>
  <sodipodi:namedview
     pagecolor="#ffffff"
     bordercolor="#666666"
     borderopacity="1"
     objecttolerance="10"
     gridtolerance="10"
     guidetolerance="10"
     inkscape:pageopacity="0"
     inkscape:pageshadow="2"
     inkscape:window-width="1856"
     inkscape:window-height="1057"
     id="namedview3815"
     showgrid="false"
     inkscape:zoom="0.64700422"
     inkscape:cx="1314.52"
     inkscape:cy="-118.11416"
     inkscape:window-x="1912"
     inkscape:window-y="-8"
     inkscape:window-maximized="1"
     inkscape:current-layer="svg_14" />
  <defs
     id="defs3769">
    <path
       id="svg_1"
       d="m0,0z" />
    <style
       type="text/css"
       id="style3767"><![CDATA[
    @font-face { font-family:"Roboto";font-variant:normal;font-style:normal;font-weight:normal;src:url("#FontID0") format(svg)}
    .fil2 {fill:#2B2A29}
    .fil1 {fill:#221E1F;fill-rule:nonzero}
    .fil0 {fill:#76AF0F;fill-rule:nonzero}
    .fnt0 {font-weight:normal;font-size:144.87px;font-family:'Roboto'}
   ]]></style>
  </defs>
  <g
     id="g3774">
    <title
       id="title3771">background</title>
    <rect
       fill="none"
       id="canvas_background"
       height="1373.18"
       width="2631.04"
       y="-1"
       x="-1" />
  </g>
  <g
     id="g3811">
    <title
       id="title3776">Layer 1</title>
    <g
       id="__x0023_Layer_x0020_1">
      <metadata
         transform="translate(5.000022888183594,0) translate(-1.2499942779541016,0) translate(-13.333189010620117,-6.666594505310059) translate(-643.327392578125,-283.3307189941406) "
         id="CorelCorpID_0Corel-Layer" />
      <path
         id="svg_2"
         d="m1380.799447,72.712687c-0.38,-11.13 -8.25,-20.04 -15.5,-28.56c-6.93,-8.76 -16.9,-16.47 -18.52,-29.58l-0.05,-0.36l0.19,-0.37c0.68,-1.34 1.52,-2.65 2.5,-3.83c1.97,-2.37 4.5,-4.27 7.44,-5.08c4.25,-1.49 8.63,-1.54 12.87,-1.31c8.48,0.66 16.49,3.16 24.3,5.89c15.62,5.6 30.29,13.25 44.58,21.45c14.33,8.14 28.01,17.51 40.63,28.14c12.72,10.17 25,21.92 38.36,29.96l0.27,0.15c8,4.76 17.08,8.68 25.91,12.8l-0.21,-0.09c56.59,20.97 111.88,46.49 162.66,79.78c50.88,32.9 97.01,74.42 132.15,124.7c35.14,50.08 57.82,109.84 61.47,171.87c0.74,15.54 0.72,31.05 -1.86,46.96c-0.84,8.37 -5.91,17.53 -8.29,23.16c-2.71,6.75 -3.45,9.66 -1.54,16.17c3.66,14.31 7.69,29.8 8.29,46.54c-0.45,9.96 -1.08,15.55 -2.68,24.58c-1.07,9.95 -12.15,21.11 -21.38,22.58l-2.46,0.39c-10.79,-0.46 -16.29,-5.14 -21.72,-8.76c-5.31,-3.89 -9.75,-8.07 -14.1,-12.3c-8.59,-8.48 -16.39,-17.26 -24.06,-26.08l-44.88,-52.96c-29.92,-34.63 -60.98,-68.96 -97.59,-93.63l15.84,-3.29c-5.37,8.26 -12.75,15.13 -21.53,19.77c-4.32,2.38 -9.08,4.15 -13.9,5.14c-4.57,1.3 -10.28,1.4 -14.07,1.59l-12.41,0.18c-3.81,-0.05 -7.87,-0.2 -12.82,-0.91c-9.16,-1.21 -17.26,-3.28 -25.34,-5.99c-31.99,-10.6 -59.51,-28.84 -86.31,-42.71l-8.88,-4.59l2.33,-9.26c2.11,-8.4 6.21,-13.17 10.18,-17.71l3.13,-3.14l3.49,-2.8l8.38,-4.89c10.54,-4.88 22.37,-6.97 34.1,-5.57l-2.66,-0.06l6.67,-1.22l2.15,-0.82l0.11,-0.09l-1.31,1.81l5.23,18.57c-49.45,-23.76 -101.4,-42.02 -154.73,-53.27c-53.42,-10.69 -108.2,-13.8 -162,-7.86c-53.7,6.22 -106.39,21.33 -154.1,45.83c-23.8,12.22 -46.45,26.76 -66.24,43.95c-9.87,8.53 -19.22,17.7 -26.69,27.49c-7.68,8.85 -13.51,22.08 -12.92,24.72l0.1,0.44l0.01,1.44c0.28,24.08 1.22,48.55 0.59,73.92l-1.22,19.22c-0.54,6.89 -0.59,11.53 -2.43,20.34c-3.17,13.95 -7.94,26.42 -14.44,38.77c-3.29,6.17 -7,12.24 -12.38,18.49c-2.67,3.1 -6.09,6.42 -10.92,9.55c-3.28,1.6 -5.61,3.19 -10.68,3.9l-3.41,0.38l-0.85,0.05l-2.35,-0.18l-0.57,-0.08l-4.14,-0.84c-9.42,-3.12 -11.57,-5.97 -15.31,-9.02c-3.29,-3 -5.77,-5.92 -8.08,-8.82c-4.53,-5.78 -8.15,-11.48 -11.52,-17.18c-13.18,-22.88 -22.74,-45.52 -31.85,-69.37l20.72,11.05c-7.69,1.68 -12.78,2.31 -19.02,3.26l-17.83,2.36c-11.88,1.43 -23.79,2.63 -35.81,3.53c-12.03,0.88 -24.13,1.5 -36.76,1.31c-6.35,-0.17 -12.78,-0.59 -20.04,-1.82c-3.85,-0.81 -7.42,-1.33 -12.93,-3.88c-2.6,-1.43 -5.94,-2.63 -9.98,-7.92c-1.76,-2.01 -3.43,-5.89 -4.07,-9.61c-0.57,-3.53 -0.04,-6.67 0.72,-9.84l-0.48,1.99c2.43,-10.17 6.61,-14.64 10.21,-19.26c3.74,-4.45 7.55,-7.77 11.4,-11.14c7.7,-6.43 15.57,-11.76 23.55,-16.63c7.99,-4.82 16.05,-9.33 24.22,-13.4c7.99,-4.09 16.73,-8.08 24.29,-11.48c7.55,-3.72 17.61,-7.71 25.55,-10.6c8.4,-3.1 16.45,-5.91 23.6,-9.12c14.55,-6.23 23.95,-14.89 30.65,-28.19l-0.49,1.17c21.75,-51.79 54.41,-94.71 90.45,-134.49c18,-19.89 37.75,-38.03 57.89,-55.56c20.68,-16.95 42.08,-32.92 64.51,-47.34c22.5,-14.3 45.86,-27.1 69.84,-38.56l36.4,-16.16l37.37,-13.69l38.22,-10.99c12.97,-3.68 25.68,-5.71 38.22,-9.67c12.5,-3.72 24.8,-8.26 36.02,-14.6c10.85,-6.35 21.66,-15.67 20.55,-28.81zm3.52,-0.21l0,0c1.56,14.85 -10.73,26.26 -21.75,32.87c-11.59,6.93 -24.08,11.86 -36.72,15.97c-12.52,4.3 -25.88,6.82 -38.16,10.66l-37.51,11.78l-36.54,14.41l-35.45,16.83c-23.04,12.39 -45.34,26.03 -66.67,41.05c-21.26,15.13 -41.38,31.7 -60.69,49.11c-18.79,18 -37.09,36.46 -53.51,56.54c-32.8,39.63 -62.48,83.9 -79.32,130.51l-0.49,1.19c-7.7,19.05 -25.8,35.68 -43.6,43.33c-8.8,4.24 -17.3,7.42 -25.3,10.65c-8.46,3.43 -14.75,5.99 -22.88,10.24c-8.36,4.05 -15.53,7.56 -23.09,11.68c-7.47,3.97 -14.64,8.27 -21.59,12.72c-6.91,4.46 -13.48,9.25 -19.14,14.26l-7.26,7.45l-2.5,3.55l-0.48,2.01l-1.83,-11.18l-2.97,-2.82l3.95,0.83c4.32,0.62 9.63,0.84 14.99,0.9c10.81,0.18 22.15,-0.37 33.49,-1.19c11.36,-0.84 22.79,-1.98 34.18,-3.35l17.03,-2.23c5.35,-0.77 11.88,-1.77 15.64,-2.6l15.28,-3.34l5.45,14.4c8.24,21.74 17.84,44.2 29.08,63.63c2.82,4.8 5.81,9.4 8.81,13.23l4.23,4.7c0.67,1.13 3.59,1.96 -0.05,0.81l0.31,0.13l0.57,0.07c-0.83,-0.05 2.26,0.18 -1.79,-0.11l-0.29,-0.05l-1.15,0.02l-2.16,0.76l2.67,-2.62c2.6,-2.98 5.44,-7.32 7.85,-11.93c4.91,-9.2 8.89,-19.76 11.11,-29.61c0.86,-3.13 1.48,-10.72 1.79,-15.99l1.12,-17.32c0.61,-23.44 -0.27,-47.78 -0.54,-72.51l0.11,1.87c-0.08,-25.88 11.34,-37.36 20.18,-50.29c9.69,-12.24 20.59,-22.51 31.93,-32.04c22.69,-19.06 47.6,-34.44 73.6,-47.31c52.03,-25.71 108.58,-40.89 165.79,-46.64c57.31,-5.48 115.09,-1.14 170.94,10.79c55.76,12.45 109.57,32.16 160.4,57.34l13.6,6.74l-8.36,11.84l-4.89,4.9l-3.87,2.45l-6.71,2.6c-4.16,1.05 -8,1.47 -12.02,2.1l-0.99,0.16l-1.68,-0.22c-6.68,-0.89 -13.76,0.27 -20.05,3.04l-3.69,1.95l-1.98,1.48l-1.79,1.76l-4.04,5.77l-6.54,-13.84c28.91,15.55 54.46,32.76 82.57,42.38c6.84,2.43 14.11,4.27 20.58,5.21c2.86,0.55 6.67,0.8 10.76,0.89l11.27,-0.05c4.04,-0.18 6.34,-0.09 9.4,-0.89l8.25,-2.92c5.21,-2.65 9.8,-6.79 13.11,-11.7l6.57,-9.75l9.29,6.45c39.98,27.75 71.02,63.47 101.04,98.92l44.18,53.43c7.39,8.72 14.87,17.32 22.64,25.18c3.89,3.88 7.87,7.68 11.87,10.66c3.78,3.08 8.49,5.15 9.45,5.09l-2.45,0.39c5.73,-1.94 6.64,-3.06 8.23,-8.2c1.17,-5.78 2.27,-15.18 2.47,-20.27c-0.34,-13.44 -3.55,-27.45 -7.22,-42.3c-2.96,-8.07 -1,-20.88 2.79,-27.71c3.54,-8.14 6.47,-12.21 7.33,-19.03c2.41,-13.83 2.99,-28.63 2.57,-43.17c-2.06,-58.54 -22.23,-116.36 -55.09,-165.57c-32.84,-49.42 -76.97,-91.21 -126.39,-124.83c-49.28,-34.08 -103.8,-60.28 -159.68,-82.28l-0.13,-0.05l-0.1,-0.05c-8.71,-4.29 -17.47,-8.21 -26.13,-13.58l0.26,0.15c-14.63,-9.18 -25.85,-20.79 -38.83,-30.94c-12.49,-10.52 -25.96,-19.76 -40.16,-27.83c-14.15,-8.12 -28.7,-15.7 -43.99,-21.18c-7.62,-2.67 -15.46,-5.09 -23.38,-5.69c-7.8,-0.88 -16.25,1.22 -19.29,8.07l0.14,-0.71c1.08,10.34 10.56,18.72 17.65,27.32c3.76,4.34 7.51,8.78 10.65,13.79c3.04,4.71 5.66,11.28 5.71,16.88z"
         class="fil0" />
      <path
         id="svg_3"
         d="m3.049447,1132.782687l11.78,-41.86c24.39,-0.83 45.22,-14.3 62.48,-40.48c17.26,-26.11 33.54,-69.18 48.83,-129.12c2.28,-9.51 4.96,-21.6 8.06,-36.28c6.21,-31.21 26.57,-46.82 61.09,-46.82c8.06,0 14.21,1.21 18.44,3.58c4.24,2.38 6.36,5.83 6.36,10.37c0,6.2 -3.56,18.3 -10.7,36.28c-7.13,17.98 -12.24,31.94 -15.34,41.86l-29.77,89.92l-1.24,3.72c-7.44,21.7 -11.16,35.76 -11.16,42.16c0,8.69 2.89,14.71 8.68,18.16c5.79,3.38 17.67,5.62 35.66,6.65l-11.79,41.86l-10.85,0c-26.66,0 -46.66,-3.48 -59.99,-10.41c-13.34,-6.89 -21.24,-18.02 -23.72,-33.31c-12.2,14.05 -25.38,24.63 -39.54,31.8c-14.16,7.09 -29.92,11.09 -47.28,11.92zm209.29,-389.13l0,0c-11.99,0 -21.24,-3.27 -27.75,-9.75c-6.51,-6.54 -9.77,-15.78 -9.77,-27.76c0,-15.51 4.81,-28.56 14.42,-39.21c9.61,-10.64 21.14,-15.98 34.57,-15.98c10.96,0 20.05,3.61 27.29,10.85c7.23,7.23 10.85,16.53 10.85,27.9c0,15.3 -4.76,28.11 -14.26,38.45c-9.51,10.34 -21.29,15.5 -35.35,15.5z"
         class="fil1" />
      <path
         id="svg_4"
         d="m254.439447,1102.392687c-9.1,9.3 -19.69,16.5 -31.78,21.57c-12.09,5.03 -25.79,7.99 -41.09,8.82l11.79,-41.86c21.7,-0.83 40.1,-10.99 55.19,-30.56c15.09,-19.5 28.83,-50.99 41.24,-94.39c5.99,-20.88 12.19,-45.69 18.6,-74.42c8.27,-38.45 21.39,-57.67 39.38,-57.67c16.33,0 27.9,0.93 34.72,2.79c6.82,1.86 10.23,5.17 10.23,9.92c0,3.52 -6.4,21.19 -19.22,53.02c-12.81,31.84 -24.18,62.63 -34.11,92.4c32.25,-52.3 61.76,-90.47 88.53,-114.58c26.76,-24.05 52.96,-36.11 78.6,-36.11c13.02,0 23.15,3.48 30.38,10.41c7.24,6.92 10.85,16.57 10.85,28.97c0,14.06 -11.99,50.75 -35.96,110.07l-7.75,19.53c-5.17,12.61 -9.25,24.36 -12.25,35.18c-3,10.88 -4.5,18.57 -4.5,23.11c0,7.65 2.9,13.03 8.68,16.13c5.79,3.1 17.26,5.17 34.42,6.2l-11.78,41.86l-7.13,0c-33.9,0 -58.76,-4.55 -74.57,-13.65c-15.82,-9.09 -23.72,-23.35 -23.72,-42.78c0,-8.89 3,-22.53 8.99,-40.93c5.99,-18.4 15.09,-41.86 27.29,-70.39l2.48,-5.89c10.54,-23.77 15.81,-37.82 15.81,-42.16c0,-3.52 -0.88,-6.1 -2.64,-7.76c-1.75,-1.65 -4.49,-2.48 -8.21,-2.48c-12.2,0 -31.06,15.51 -56.59,46.51c-25.53,31.01 -47.9,68.63 -67.13,112.86c-3.92,8.89 -8.16,19.74 -12.71,32.56c-8.68,23.56 -25.63,35.35 -50.85,35.35c-8.27,0 -14.05,-0.76 -17.36,-2.35c-3.31,-1.51 -4.96,-4.27 -4.96,-8.2c0,-2.06 0.57,-4.82 1.7,-8.19c1.14,-3.45 2.95,-7.72 5.43,-12.89z"
         class="fil1" />
      <path
         id="svg_5"
         d="m515.419447,1132.782687l11.78,-41.86c23.15,-2.27 41.19,-10.1 54.11,-23.39c12.92,-13.37 24.34,-37.69 34.26,-73.04l26.05,-92.09l-30.08,0c-4.55,0 -7.65,-0.55 -9.3,-1.68c-1.66,-1.14 -2.48,-3.17 -2.48,-6.07c0,-0.41 0.05,-0.93 0.15,-1.55c0.11,-0.62 0.47,-1.86 1.09,-3.72l4.96,-14.88c1.24,-3.93 3.36,-6.62 6.35,-8.06c3,-1.45 8.94,-2.17 17.83,-2.17l22.95,0l30.38,-100.46c1.66,-5.38 3.62,-12.82 5.89,-22.33c6.41,-26.87 19.23,-40.3 38.45,-40.3c13.64,0 24.29,1.72 31.94,5.09c7.65,3.45 11.47,8.24 11.47,14.44c0,4.13 -2.38,12.09 -7.13,23.87c-2.48,6.2 -4.34,11.17 -5.58,14.89l-35.66,104.8l52.09,0c3.93,0 6.93,0.58 8.99,1.72c2.07,1.14 3.1,2.93 3.1,5.41c0,1.03 -0.05,1.96 -0.15,2.79c-0.11,0.82 -0.26,1.65 -0.47,2.48l-5.27,14.88c-1.24,3.93 -3.51,6.72 -6.82,8.37c-3.31,1.66 -9.09,2.48 -17.36,2.48l-45.58,0l-30.39,100.15c-3.51,11.16 -6.09,20.84 -7.75,29.01c-1.65,8.16 -2.48,14.81 -2.48,19.98c0,11.78 5.58,20.98 16.74,27.6c11.17,6.61 27.81,10.54 49.92,11.78l-12.09,41.86l-7.44,0c-27.49,0 -50.54,-3.24 -69.14,-9.79c-18.61,-6.47 -32.04,-15.95 -40.31,-28.35c-13.23,11.37 -27.85,20.36 -43.87,26.97c-16.02,6.62 -32.41,10.34 -49.15,11.17z"
         class="fil1" />
      <path
         id="svg_6"
         d="m843.699447,1101.772687c-20.05,9.51 -40.15,16.85 -60.3,22.01c-20.16,5.17 -40.46,8.17 -60.93,9l12.4,-41.86c14.27,-1.03 27.44,-3 39.54,-5.89c12.09,-2.9 23.82,-6.82 35.19,-11.78c-7.86,-10.34 -13.64,-22.12 -17.37,-35.35c-3.72,-13.23 -5.58,-28.73 -5.58,-46.51c0,-41.34 14.11,-77.31 42.33,-107.9c28.21,-30.59 61.54,-45.89 99.99,-45.89c21.5,0 38.5,6.48 51.01,19.36c12.5,12.96 18.75,30.56 18.75,52.88c0,24.4 -8.94,51.3 -26.82,80.79c-17.88,29.42 -41.7,55.43 -71.46,77.96c8.68,8.07 18.13,13.82 28.37,17.2c10.23,3.44 22.79,5.13 37.67,5.13l4.34,0l-12.09,41.86l-8.38,0c-23.15,0 -43.51,-2.55 -61.08,-7.58c-17.57,-5.07 -32.76,-12.89 -45.58,-23.43zm31.94,-65.42l0,0c21.5,-14.06 39.58,-33.04 54.26,-56.88c14.68,-23.91 22.02,-44.72 22.02,-62.49c0,-8.89 -2.18,-15.64 -6.52,-20.33c-4.34,-4.62 -10.64,-6.96 -18.91,-6.96c-17.16,0 -32.35,10.06 -45.58,30.25c-13.23,20.12 -19.84,43.54 -19.84,70.21c0,10.13 1.13,18.88 3.41,26.18c2.27,7.37 5.99,14.02 11.16,20.02z"
         class="fil1" />
      <path
         id="svg_7"
         d="m955.569447,1132.782687l11.78,-41.86c10.75,0 22.22,-3.14 34.42,-9.48c12.19,-6.27 25.94,-16.26 41.23,-29.9c6.82,-46.92 16.28,-95.36 28.37,-145.24c12.1,-49.96 26.31,-99.29 42.64,-148.07c13.64,-40.31 26.4,-68.15 38.29,-83.58c11.88,-15.37 25.58,-23.08 41.08,-23.08c10.34,0 18.86,4.13 25.58,12.4c6.72,8.27 10.08,18.91 10.08,31.93c0,16.13 -6.05,36.66 -18.14,61.57c-12.09,24.91 -28.47,50.16 -49.14,75.79c-15.92,51.06 -28.68,97.98 -38.3,140.77c-9.61,42.78 -14.41,71.21 -14.41,85.26c0,11.16 2.79,19.23 8.37,24.19c5.58,4.96 14.88,7.44 27.9,7.44l-12.09,41.86l-7.13,0c-23.15,0 -41.14,-3.31 -53.95,-9.93c-12.82,-6.61 -21.08,-16.84 -24.81,-30.69c-13.64,12.61 -28.21,22.32 -43.71,29.14c-15.51,6.83 -31.53,10.65 -48.06,11.48z"
         class="fil1" />
      <path
         id="svg_8"
         d="m1130.039447,1132.782687l11.79,-41.86c10.74,0 22.22,-3.14 34.41,-9.48c12.2,-6.27 25.94,-16.26 41.24,-29.9c6.82,-46.92 16.28,-95.36 28.37,-145.24c12.09,-49.96 26.3,-99.29 42.63,-148.07c13.65,-40.31 26.41,-68.15 38.3,-83.58c11.88,-15.37 25.58,-23.08 41.08,-23.08c10.33,0 18.86,4.13 25.58,12.4c6.72,8.27 10.08,18.91 10.08,31.93c0,16.13 -6.05,36.66 -18.14,61.57c-12.1,24.91 -28.48,50.16 -49.15,75.79c-15.91,51.06 -28.68,97.98 -38.29,140.77c-9.61,42.78 -14.42,71.21 -14.42,85.26c0,11.16 2.79,19.23 8.37,24.19c5.59,4.96 14.89,7.44 27.91,7.44l-12.09,41.86l-7.13,0c-23.15,0 -41.14,-3.31 -53.95,-9.93c-12.82,-6.61 -21.09,-16.84 -24.81,-30.69c-13.64,12.61 -28.21,22.32 -43.72,29.14c-15.5,6.83 -31.52,10.65 -48.06,11.48z"
         class="fil1" />
      <path
         id="svg_9"
         d="m1425.769447,1101.772687c-20.05,9.51 -40.15,16.85 -60.31,22.01c-20.15,5.17 -40.46,8.17 -60.92,9l12.4,-41.86c14.26,-1.03 27.44,-3 39.53,-5.89c12.1,-2.9 23.83,-6.82 35.19,-11.78c-7.85,-10.34 -13.64,-22.12 -17.36,-35.35c-3.72,-13.23 -5.58,-28.73 -5.58,-46.51c0,-41.34 14.11,-77.31 42.32,-107.9c28.22,-30.59 61.55,-45.89 100,-45.89c21.49,0 38.5,6.48 51,19.36c12.51,12.96 18.76,30.56 18.76,52.88c0,24.4 -8.94,51.3 -26.82,80.79c-17.88,29.42 -41.7,55.43 -71.47,77.96c8.68,8.07 18.14,13.82 28.37,17.2c10.23,3.44 22.79,5.13 37.67,5.13l4.34,0l-12.09,41.86l-8.37,0c-23.15,0 -43.51,-2.55 -61.08,-7.58c-17.57,-5.07 -32.76,-12.89 -45.58,-23.43zm31.94,-65.42l0,0c21.49,-14.06 39.58,-33.04 54.26,-56.88c14.67,-23.91 22.01,-44.72 22.01,-62.49c0,-8.89 -2.17,-15.64 -6.51,-20.33c-4.34,-4.62 -10.65,-6.96 -18.91,-6.96c-17.16,0 -32.35,10.06 -45.58,30.25c-13.23,20.12 -19.85,43.54 -19.85,70.21c0,10.13 1.14,18.88 3.41,26.18c2.28,7.37 6,14.02 11.17,20.02z"
         class="fil1" />
      <path
         id="svg_10"
         d="m1537.629447,1132.782687l12.41,-41.86c12.6,-0.62 24.39,-2.48 35.34,-5.58c10.96,-3.1 21.29,-7.55 31.01,-13.33c-4.96,-8.69 -8.63,-18.23 -11.01,-28.67c-2.38,-10.44 -3.56,-22.7 -3.56,-36.76c0,-45.06 16.01,-84.51 48.05,-118.27c32.04,-33.83 68.73,-50.71 110.08,-50.71c21.08,0 37.87,4.93 50.38,14.75c12.51,9.81 18.76,22.66 18.76,38.58c0,10.75 -3.15,19.71 -9.46,26.8c-6.3,7.17 -13.9,10.72 -22.79,10.72c-3.31,0 -5.63,-0.45 -6.97,-1.41c-1.35,-0.9 -2.02,-3.24 -2.02,-6.96c0,-9.51 -2.17,-16.54 -6.51,-21.09c-4.34,-4.55 -11.27,-6.82 -20.77,-6.82c-20.88,0 -39.64,11.27 -56.28,33.8c-16.64,22.53 -24.96,48.57 -24.96,78.13c0,29.56 9.25,51.27 27.75,65.11c18.5,13.85 47.9,21.09 88.21,21.71l-11.78,41.86c-3.31,0 -6.82,0.41 -10.54,1.24c-0.83,0 -1.35,0 -1.55,0c-28.11,0 -52.92,-2.9 -74.42,-8.68c-21.49,-5.79 -39.06,-14.27 -52.71,-25.43c-14.05,10.34 -29.97,18.26 -47.75,23.7c-17.77,5.48 -37.41,8.55 -58.91,9.17z"
         class="fil1" />
      <path
         id="svg_11"
         d="m1780.319447,1132.782687l11.79,-41.86c23.15,-2.27 41.18,-10.1 54.1,-23.39c12.92,-13.37 24.34,-37.69 34.26,-73.04l26.05,-92.09l-30.08,0c-4.55,0 -7.65,-0.55 -9.3,-1.68c-1.65,-1.14 -2.48,-3.17 -2.48,-6.07c0,-0.41 0.05,-0.93 0.15,-1.55c0.11,-0.62 0.47,-1.86 1.09,-3.72l4.96,-14.88c1.24,-3.93 3.36,-6.62 6.36,-8.06c2.99,-1.45 8.94,-2.17 17.82,-2.17l22.95,0l30.38,-100.46c1.66,-5.38 3.62,-12.82 5.9,-22.33c6.4,-26.87 19.22,-40.3 38.44,-40.3c13.65,0 24.29,1.72 31.94,5.09c7.65,3.45 11.47,8.24 11.47,14.44c0,4.13 -2.38,12.09 -7.13,23.87c-2.48,6.2 -4.34,11.17 -5.58,14.89l-35.66,104.8l52.09,0c3.93,0 6.93,0.58 8.99,1.72c2.07,1.14 3.1,2.93 3.1,5.41c0,1.03 -0.05,1.96 -0.15,2.79c-0.1,0.82 -0.26,1.65 -0.47,2.48l-5.27,14.88c-1.24,3.93 -3.51,6.72 -6.82,8.37c-3.31,1.66 -9.09,2.48 -17.36,2.48l-45.58,0l-30.39,100.15c-3.51,11.16 -6.09,20.84 -7.75,29.01c-1.65,8.16 -2.48,14.81 -2.48,19.98c0,11.78 5.58,20.98 16.75,27.6c11.16,6.61 27.8,10.54 49.91,11.78l-12.09,41.86l-7.44,0c-27.49,0 -50.54,-3.24 -69.14,-9.79c-18.61,-6.47 -32.04,-15.95 -40.31,-28.35c-13.23,11.37 -27.85,20.36 -43.87,26.97c-16.02,6.62 -32.4,10.34 -49.15,11.17z"
         class="fil1" />
      <path
         id="svg_12"
         d="m1987.369447,1132.782687l12.1,-41.86c12.4,-0.62 24.23,-2.59 35.5,-5.89c11.26,-3.31 22.37,-8.06 33.33,-14.27c-0.21,-1.44 -0.36,-2.96 -0.47,-4.47c-0.1,-1.59 -0.15,-3.9 -0.15,-7c0,-20.46 10.85,-62.22 32.55,-125.26c4.14,-11.78 7.24,-20.88 9.31,-27.29c2.06,-5.78 4.75,-13.64 8.06,-23.56c10.75,-32.87 21.39,-49.3 31.93,-49.3c14.06,0 27.86,2.62 41.4,7.92c13.54,5.24 20.31,10.89 20.31,16.88c0,2.28 -4.91,13.75 -14.73,34.42c-9.82,20.67 -18.66,40.52 -26.51,59.53c-12.82,31.22 -21.86,54.99 -27.13,71.32c-5.27,16.33 -7.91,28.31 -7.91,35.96c0,6.41 1.6,11.27 4.81,14.58c3.2,3.3 7.8,4.96 13.79,4.96c14.06,0 30.18,-11.41 48.37,-34.25c18.19,-22.84 35.45,-53.5 51.78,-91.95c9.1,-20.87 17.68,-45.47 25.74,-73.79c8.27,-29.15 19.64,-43.72 34.1,-43.72c13.65,0 25.64,2.27 35.97,6.82c10.34,4.55 15.5,9.92 15.5,16.12c0,2.28 -4.75,13.96 -14.26,35.04c-9.51,21.09 -17.88,40.93 -25.11,59.53c-10.13,26.05 -17.62,48.03 -22.48,65.91c-4.86,17.88 -7.29,32.28 -7.29,43.23c0,10.34 2.74,17.54 8.22,21.54c5.48,4.06 16.17,6.37 32.09,6.99l-11.78,41.86l-5.89,0c-29.56,0 -50.08,-3.48 -61.55,-10.41c-11.47,-6.89 -17.21,-19.05 -17.21,-36.41c0,-7.03 1.14,-15.71 3.41,-26.05c2.28,-10.33 6,-23.87 11.16,-40.61c-30.59,45.47 -54.93,75.75 -73.02,90.84c-18.08,15.09 -37.05,22.64 -56.89,22.64c-13.23,0 -24.19,-2.28 -32.87,-6.82c-8.68,-4.55 -14.88,-11.37 -18.6,-20.47c-11.99,8.27 -24.7,14.54 -38.14,18.74c-13.43,4.24 -29.25,7.1 -47.44,8.55z"
         class="fil1" />
      <path
         id="svg_13"
         d="m2321.239447,1132.782687l11.78,-41.86c19.84,-2.48 45.73,-21.26 77.67,-56.26c31.94,-35.07 65.16,-81.72 99.68,-140.01c-4.13,-4.13 -7.08,-8.61 -8.83,-13.5c-1.76,-4.83 -2.64,-10.48 -2.64,-16.88c0,-16.13 6.2,-29.98 18.6,-41.55c12.41,-11.58 27.29,-17.37 44.65,-17.37c10.34,0 18.55,2.76 24.65,8.2c6.1,5.52 9.15,12.89 9.15,22.19c0,8.68 -2.58,17.47 -7.75,26.36c-5.17,8.88 -12.92,17.67 -23.26,26.35c18.19,20.26 31.32,38.93 39.38,55.95c8.06,17.09 12.09,34.59 12.09,52.57c0,16.33 -2.84,32.21 -8.52,47.61c-5.69,15.4 -13.49,28.36 -23.41,38.9c4.75,2.48 10.23,4.34 16.43,5.58c6.2,1.24 13.64,1.86 22.32,1.86l6.52,0l-12.1,41.86l-8.99,0c-11.57,0 -22.63,-1.14 -33.17,-3.41c-10.55,-2.28 -21.09,-5.79 -31.63,-10.55c-12.61,5.17 -24.75,9 -36.43,11.48c-11.68,2.48 -22.59,3.72 -32.71,3.72c-16.13,0 -31.42,-2.62 -45.89,-7.93c-14.47,-5.23 -26.46,-12.54 -35.97,-21.84c-9.92,7.65 -20.88,13.85 -32.87,18.6c-11.98,4.76 -24.9,8.07 -38.75,9.93zm123.09,-78.14l0,0c7.86,2.9 14.62,7.41 20.31,13.51c5.68,6.09 10.28,13.67 13.8,22.77c19.43,-3.93 34.67,-13.75 45.73,-29.46c11.06,-15.71 16.59,-35.55 16.59,-59.53c0,-9.3 -0.93,-19.15 -2.79,-29.63c-1.86,-10.4 -4.76,-22.04 -8.68,-34.86c-8.06,17.78 -19.43,36.79 -34.11,57.05c-14.68,20.26 -31.63,40.31 -50.85,60.15z"
         class="fil1" />
      <g
         id="g3838">
        <g
           transform="matrix(1,0,0,1,-894.091,558.718) "
           id="svg_14">
          <g
             aria-label="a"
             style="font-weight:normal;font-size:144.86999512px;font-family:Roboto;fill:#2b2a29"
             id="svg_15">
            <path
               d="m 1350.0959,780.09271 h -13.2279 v -8.41774 q -1.7684,1.20254 -4.8101,3.39539 -2.971,2.12212 -5.8005,3.39539 -3.3246,1.62696 -7.6396,2.68802 -4.315,1.1318 -10.1155,1.1318 -10.6813,0 -18.1087,-7.07373 -7.4274,-7.07373 -7.4274,-18.03801 0,-8.98364 3.8198,-14.50115 3.8905,-5.58825 11.035,-8.77143 7.2152,-3.18317 17.3306,-4.31497 10.1155,-1.1318 21.7164,-1.6977 v -2.05138 q 0,-4.52719 -1.627,-7.49815 -1.5562,-2.97097 -4.5271,-4.66866 -2.8295,-1.62696 -6.7908,-2.19286 -3.9613,-0.5659 -8.2763,-0.5659 -5.2346,0 -11.6716,1.41475 -6.4371,1.34401 -13.2987,3.96129 h -0.7073 v -13.51083 q 3.8905,-1.06106 11.2472,-2.33433 7.3567,-1.27327 14.5011,-1.27327 8.347,0 14.5012,1.41474 6.2249,1.34401 10.7521,4.66867 4.4564,3.25391 6.7907,8.41774 2.3344,5.16382 2.3344,12.80345 z m -13.2279,-19.45276 v -21.9993 q -6.0834,0.35369 -14.3597,1.06106 -8.2055,0.70738 -13.0156,2.05138 -5.7298,1.62696 -9.2666,5.09309 -3.5369,3.39539 -3.5369,9.40806 0,6.79078 4.1028,10.25691 4.1027,3.39539 12.5205,3.39539 7.003,0 12.8034,-2.68802 5.8005,-2.75875 10.7521,-6.57857 z"
               style="font-weight:normal;font-size:144.86999512px;font-family:Roboto;fill:#2b2a29"
               id="path3840" />
          </g>
          <g
             aria-label="n"
             style="font-weight:normal;font-size:144.86999512px;font-family:Roboto;fill:#2b2a29"
             id="svg_16">
            <path
               d="m 1462.4945,780.09271 h -13.2986 v -44.98892 q 0,-5.44677 -0.6366,-10.18617 -0.6367,-4.81014 -2.3344,-7.49816 -1.7684,-2.97096 -5.093,-4.38571 -3.3247,-1.48548 -8.63,-1.48548 -5.4468,0 -11.3887,2.68801 -5.9419,2.68802 -11.3887,6.86152 v 58.99491 h -13.2986 v -79.01356 h 13.2986 v 8.77142 q 6.2249,-5.16382 12.8742,-8.06405 6.6493,-2.90023 13.6523,-2.90023 12.8034,0 19.5235,7.71037 6.72,7.71036 6.72,22.21151 z"
               style="font-weight:normal;font-size:144.86999512px;font-family:Roboto;fill:#2b2a29"
               id="path3843" />
          </g>
          <g
             aria-label="g"
             style="font-weight:normal;font-size:144.86999512px;font-family:Roboto;fill:#2b2a29"
             id="svg_17">
            <path
               d="m 1570.9238,771.10908 q 0,20.08939 -9.1251,29.49745 -9.1251,9.40806 -28.0827,9.40806 -6.2957,0 -12.3083,-0.91958 -5.942,-0.84885 -11.7424,-2.47581 v -13.58156 h 0.7074 q 3.2539,1.27327 10.3276,3.11244 7.0737,1.90991 14.1475,1.90991 6.7907,0 11.2472,-1.62696 4.4564,-1.62696 6.9322,-4.52719 2.4759,-2.75875 3.5369,-6.6493 1.0611,-3.89056 1.0611,-8.70069 v -7.21521 q -6.0127,4.81014 -11.5302,7.21521 -5.4468,2.33433 -13.9353,2.33433 -14.1474,0 -22.4944,-10.18617 -8.2763,-10.25691 -8.2763,-28.86082 0,-10.18617 2.8295,-17.54285 2.9002,-7.42742 7.8519,-12.80346 4.5979,-5.02234 11.1764,-7.7811 6.5786,-2.82949 13.0864,-2.82949 6.8616,0 11.4595,1.41475 4.6687,1.344 9.8325,4.1735 l 0.8488,-3.39539 h 12.4498 z m -13.2986,-12.73272 v -43.07902 q -5.3053,-2.40506 -9.9032,-3.39539 -4.5272,-1.06106 -9.0544,-1.06106 -10.9643,0 -17.2599,7.35668 -6.2956,7.35668 -6.2956,21.36267 0,13.29861 4.6686,20.16013 4.6687,6.86152 15.4915,6.86152 5.8004,0 11.6009,-2.19286 5.8712,-2.26359 10.7521,-6.01267 z"
               style="font-weight:normal;font-size:144.86999512px;font-family:Roboto;fill:#2b2a29"
               id="path3846" />
          </g>
          <g
             aria-label="l"
             style="font-weight:normal;font-size:144.86999512px;font-family:Roboto;fill:#2b2a29"
             id="svg_18">
            <path
               d="m 1630.6859,780.09271 h -13.2986 V 670.02547 h 13.2986 z"
               style="font-weight:normal;font-size:144.86999512px;font-family:Roboto;fill:#2b2a29"
               id="path3849" />
          </g>
          <g
             aria-label="ų"
             style="font-weight:normal;font-size:144.86999512px;font-family:Roboto;fill:#2b2a29"
             id="svg_19">
            <path
               d="m 1733.1911,783.91253 q 0.4244,-1.76844 0.8488,-3.81982 v -8.77142 q -6.72,5.30529 -12.8742,8.13479 -6.1541,2.82949 -13.5815,2.82949 -12.4498,0 -19.3821,-7.56889 -6.9322,-7.63963 -6.9322,-22.35299 v -51.28454 h 13.2986 v 44.98892 q 0,6.01267 0.5659,10.32765 0.5659,4.24423 2.4051,7.28594 1.9099,3.11244 4.9516,4.52719 3.0417,1.41474 8.8421,1.41474 5.1639,0 11.2473,-2.68802 6.1541,-2.68801 11.4594,-6.86151 v -58.99491 h 13.2986 v 79.01356 h -2.1221 q -0.4244,1.90991 -0.7074,3.74908 -0.2122,1.90991 -0.2122,3.81981 0,5.80046 2.9003,8.55922 2.9709,2.75875 9.3373,2.75875 2.5465,0 5.376,-0.99032 2.9002,-0.91959 4.1028,-1.48548 h 0.5659 V 807.751 q -3.6784,0.99032 -6.3664,1.41474 -2.6173,0.42443 -5.5882,0.42443 -9.9032,0 -15.8452,-5.65899 -5.9419,-5.65898 -5.9419,-15.63294 0,-2.54654 0.3537,-4.38571 z"
               style="font-weight:normal;font-size:144.86999512px;font-family:Roboto;fill:#2b2a29"
               id="path3852" />
          </g>
          <g
             aria-label="k"
             style="font-weight:normal;font-size:144.86999512px;font-family:Roboto;fill:#2b2a29"
             id="svg_20">
            <path
               d="m 1943.8935,780.09271 h -17.5429 l -31.6903,-34.59054 -8.6299,8.20553 v 26.38501 h -13.2986 V 670.02547 h 13.2986 v 70.59583 l 38.4103,-39.54215 h 16.7648 l -36.7127,36.50044 z"
               style="font-weight:normal;font-size:144.86999512px;font-family:Roboto;fill:#2b2a29"
               id="path3855" />
          </g>
          <g
             aria-label="a"
             style="font-weight:normal;font-size:144.86999512px;font-family:Roboto;fill:#2b2a29"
             id="svg_21">
            <path
               d="m 2035.9158,780.09271 h -13.2279 v -8.41774 q -1.7684,1.20254 -4.8101,3.39539 -2.971,2.12212 -5.8004,3.39539 -3.3247,1.62696 -7.6397,2.68802 -4.315,1.1318 -10.1154,1.1318 -10.6813,0 -18.1088,-7.07373 -7.4274,-7.07373 -7.4274,-18.03801 0,-8.98364 3.8198,-14.50115 3.8906,-5.58825 11.0351,-8.77143 7.2152,-3.18317 17.3306,-4.31497 10.1154,-1.1318 21.7163,-1.6977 v -2.05138 q 0,-4.52719 -1.6269,-7.49815 -1.5562,-2.97097 -4.5272,-4.66866 -2.8295,-1.62696 -6.7908,-2.19286 -3.9613,-0.5659 -8.2762,-0.5659 -5.2346,0 -11.6717,1.41475 -6.4371,1.34401 -13.2986,3.96129 h -0.7074 v -13.51083 q 3.8906,-1.06106 11.2472,-2.33433 7.3567,-1.27327 14.5012,-1.27327 8.347,0 14.5011,1.41474 6.2249,1.34401 10.7521,4.66867 4.4565,3.25391 6.7908,8.41774 2.3343,5.16382 2.3343,12.80345 z m -13.2279,-19.45276 v -21.9993 q -6.0834,0.35369 -14.3596,1.06106 -8.2056,0.70738 -13.0157,2.05138 -5.7297,1.62696 -9.2666,5.09309 -3.5368,3.39539 -3.5368,9.40806 0,6.79078 4.1027,10.25691 4.1028,3.39539 12.5205,3.39539 7.003,0 12.8035,-2.68802 5.8004,-2.75875 10.752,-6.57857 z"
               style="font-weight:normal;font-size:144.86999512px;font-family:Roboto;fill:#2b2a29"
               id="path3858" />
          </g>
          <g
             aria-label="l"
             style="font-weight:normal;font-size:144.86999512px;font-family:Roboto;fill:#2b2a29"
             id="svg_22">
            <path
               d="m 2095.6859,780.09271 h -13.2986 V 670.02547 h 13.2986 z"
               style="font-weight:normal;font-size:144.86999512px;font-family:Roboto;fill:#2b2a29"
               id="path3861" />
          </g>
          <g
             aria-label="b"
             style="font-weight:normal;font-size:144.86999512px;font-family:Roboto;fill:#2b2a29"
             id="svg_23">
            <path
               d="m 2216.3707,739.98466 q 0,9.90322 -2.8295,17.8258 -2.7588,7.92258 -7.4982,13.29862 -5.0223,5.58824 -11.035,8.41773 -6.0127,2.75876 -13.2279,2.75876 -6.72,0 -11.7424,-1.62696 -5.0223,-1.55622 -9.9032,-4.24424 l -0.8488,3.67834 h -12.4498 V 670.02547 h 13.2986 v 39.32994 q 5.5883,-4.59792 11.8839,-7.49815 6.2956,-2.97097 14.1475,-2.97097 14.0059,0 22.07,10.75207 8.1348,10.75207 8.1348,30.3463 z m -13.7231,0.35369 q 0,-14.14746 -4.6686,-21.4334 -4.6687,-7.35668 -15.0671,-7.35668 -5.8004,0 -11.7424,2.54654 -5.9419,2.4758 -11.035,6.43709 v 45.27188 q 5.659,2.54654 9.691,3.53686 4.1028,0.99032 9.2666,0.99032 11.035,0 17.2599,-7.2152 6.2956,-7.28594 6.2956,-22.77741 z"
               style="font-weight:normal;font-size:144.86999512px;font-family:Roboto;fill:#2b2a29"
               id="path3864" />
          </g>
          <g
             aria-label="o"
             style="font-weight:normal;font-size:144.86999512px;font-family:Roboto;fill:#2b2a29"
             id="svg_24">
            <path
               d="m 2324.5877,740.6213 q 0,19.31128 -9.9032,30.48778 -9.9032,11.17649 -26.5265,11.17649 -16.7647,0 -26.6679,-11.17649 -9.8325,-11.1765 -9.8325,-30.48778 0,-19.31129 9.8325,-30.48778 9.9032,-11.24723 26.6679,-11.24723 16.6233,0 26.5265,11.24723 9.9032,11.17649 9.9032,30.48778 z m -13.723,0 q 0,-15.35 -6.0127,-22.77741 -6.0126,-7.49816 -16.694,-7.49816 -10.8228,0 -16.8355,7.49816 -5.9419,7.42741 -5.9419,22.77741 0,14.85483 6.0127,22.5652 6.0127,7.63963 16.7647,7.63963 10.6106,0 16.6233,-7.5689 6.0834,-7.63962 6.0834,-22.63593 z"
               style="font-weight:normal;font-size:144.86999512px;font-family:Roboto;fill:#2b2a29"
               id="path3867" />
          </g>
          <g
             aria-label="s"
             style="font-weight:normal;font-size:144.86999512px;font-family:Roboto;fill:#2b2a29"
             id="svg_25">
            <path
               d="m 2424.1041,757.3153 q 0,10.82281 -8.9836,17.75506 -8.9129,6.93226 -24.4044,6.93226 -8.7714,0 -16.1281,-2.05138 -7.2859,-2.12212 -12.2376,-4.59793 v -14.92557 h 0.7074 q 6.2956,4.7394 14.006,7.56889 7.7104,2.75876 14.7841,2.75876 8.7714,0 13.723,-2.82949 4.9516,-2.8295 4.9516,-8.9129 0,-4.66867 -2.688,-7.07373 -2.688,-2.40507 -10.3276,-4.10277 -2.8295,-0.63663 -7.4274,-1.48548 -4.5272,-0.84885 -8.2763,-1.83917 -10.3984,-2.75876 -14.7841,-8.06405 -4.315,-5.37604 -4.315,-13.15714 0,-4.88088 1.9807,-9.19585 2.0514,-4.31498 6.1541,-7.71037 3.9613,-3.32465 10.0447,-5.23456 6.1542,-1.98064 13.723,-1.98064 7.0738,0 14.289,1.76843 7.2859,1.6977 12.0961,4.1735 v 14.2182 h -0.7074 q -5.0931,-3.74908 -12.379,-6.29562 -7.286,-2.61728 -14.289,-2.61728 -7.2859,0 -12.3083,2.82949 -5.0223,2.75876 -5.0223,8.27627 0,4.88087 3.0417,7.35668 2.971,2.4758 9.6203,4.03202 3.6783,0.84885 8.2055,1.6977 4.5979,0.84884 7.6396,1.55622 9.2666,2.12212 14.289,7.28594 5.0223,5.23456 5.0223,13.86451 z"
               style="font-weight:normal;font-size:144.86999512px;font-family:Roboto;fill:#2b2a29"
               id="path3870" />
          </g>
          <g
             aria-label="m"
             style="font-weight:normal;font-size:144.86999512px;font-family:Roboto;fill:#2b2a29"
             id="svg_26">
            <path
               d="m 2666.7276,780.09271 h -13.2987 v -44.98892 q 0,-5.09309 -0.4951,-9.83249 -0.4244,-4.7394 -1.9099,-7.56889 -1.627,-3.0417 -4.6687,-4.59792 -3.0417,-1.55622 -8.7714,-1.55622 -5.5883,0 -11.1765,2.82949 -5.5883,2.75875 -11.1765,7.07373 0.2122,1.62696 0.3537,3.81981 0.1415,2.12212 0.1415,4.24424 v 50.57717 h -13.2986 v -44.98892 q 0,-5.23456 -0.4952,-9.90322 -0.4244,-4.7394 -1.9099,-7.5689 -1.627,-3.0417 -4.6687,-4.52718 -3.0417,-1.55622 -8.7714,-1.55622 -5.4468,0 -10.9643,2.68801 -5.4468,2.68802 -10.8935,6.86152 v 58.99491 h -13.2986 v -79.01356 h 13.2986 v 8.77142 q 6.2249,-5.16382 12.379,-8.06405 6.2249,-2.90023 13.2279,-2.90023 8.064,0 13.6523,3.39539 5.659,3.39539 8.4177,9.40806 8.0641,-6.79078 14.7134,-9.76175 6.6493,-3.0417 14.2182,-3.0417 13.0156,0 19.1698,7.92258 6.2249,7.85184 6.2249,21.9993 z"
               style="font-weight:normal;font-size:144.86999512px;font-family:Roboto;fill:#2b2a29"
               id="path3873" />
          </g>
          <g
             aria-label="o"
             style="font-weight:normal;font-size:144.86999512px;font-family:Roboto;fill:#2b2a29"
             id="svg_27">
            <path
               d="m 2773.4679,740.6213 q 0,19.31128 -9.9033,30.48778 -9.9032,11.17649 -26.5264,11.17649 -16.7648,0 -26.668,-11.17649 -9.8325,-11.1765 -9.8325,-30.48778 0,-19.31129 9.8325,-30.48778 9.9032,-11.24723 26.668,-11.24723 16.6232,0 26.5264,11.24723 9.9033,11.17649 9.9033,30.48778 z m -13.7231,0 q 0,-15.35 -6.0126,-22.77741 -6.0127,-7.49816 -16.694,-7.49816 -10.8229,0 -16.8355,7.49816 -5.942,7.42741 -5.942,22.77741 0,14.85483 6.0127,22.5652 6.0127,7.63963 16.7648,7.63963 10.6105,0 16.6232,-7.5689 6.0834,-7.63962 6.0834,-22.63593 z"
               style="font-weight:normal;font-size:144.86999512px;font-family:Roboto;fill:#2b2a29"
               id="path3876" />
          </g>
          <g
             aria-label="k"
             style="font-weight:normal;font-size:144.86999512px;font-family:Roboto;fill:#2b2a29"
             id="svg_28">
            <path
               d="m 2888.2635,780.09271 h -17.5429 l -31.6903,-34.59054 -8.6299,8.20553 v 26.38501 h -13.2986 V 670.02547 h 13.2986 v 70.59583 l 38.4103,-39.54215 h 16.7648 l -36.7127,36.50044 z"
               style="font-weight:normal;font-size:144.86999512px;font-family:Roboto;fill:#2b2a29"
               id="path3879" />
          </g>
          <g
             aria-label="y"
             style="font-weight:normal;font-size:144.86999512px;font-family:Roboto;fill:#2b2a29"
             id="svg_29">
            <path
               d="m 2987.2182,701.07915 -46.1207,108.15733 h -14.2182 l 14.7133,-32.96358 -31.4781,-75.19375 h 14.4304 l 24.2629,58.57048 24.4751,-58.57048 z"
               style="font-weight:normal;font-size:144.86999512px;font-family:Roboto;fill:#2b2a29"
               id="path3882" />
          </g>
          <g
             aria-label="k"
             style="font-weight:normal;font-size:144.86999512px;font-family:Roboto;fill:#2b2a29"
             id="svg_30">
            <path
               d="m 3091.5635,780.09271 h -17.5428 l -31.6903,-34.59054 -8.63,8.20553 v 26.38501 h -13.2986 V 670.02547 h 13.2986 v 70.59583 l 38.4104,-39.54215 h 16.7647 l -36.7126,36.50044 z"
               style="font-weight:normal;font-size:144.86999512px;font-family:Roboto;fill:#2b2a29"
               id="path3885" />
          </g>
          <g
             aria-label="l"
             style="font-weight:normal;font-size:144.86999512px;font-family:Roboto;fill:#2b2a29"
             id="svg_31">
            <path
               d="m 3135.6259,780.09271 h -13.2987 V 670.02547 h 13.2987 z"
               style="font-weight:normal;font-size:144.86999512px;font-family:Roboto;fill:#2b2a29"
               id="path3888" />
          </g>
          <g
             aria-label="a"
             style="font-weight:normal;font-size:144.86999512px;font-family:Roboto;fill:#2b2a29"
             id="svg_32">
            <path
               d="m 3248.1758,780.09271 h -13.2278 v -8.41774 q -1.7685,1.20254 -4.8102,3.39539 -2.9709,2.12212 -5.8004,3.39539 -3.3247,1.62696 -7.6397,2.68802 -4.3149,1.1318 -10.1154,1.1318 -10.6813,0 -18.1088,-7.07373 -7.4274,-7.07373 -7.4274,-18.03801 0,-8.98364 3.8198,-14.50115 3.8906,-5.58825 11.0351,-8.77143 7.2152,-3.18317 17.3306,-4.31497 10.1154,-1.1318 21.7164,-1.6977 v -2.05138 q 0,-4.52719 -1.627,-7.49815 -1.5562,-2.97097 -4.5272,-4.66866 -2.8295,-1.62696 -6.7908,-2.19286 -3.9613,-0.5659 -8.2762,-0.5659 -5.2346,0 -11.6717,1.41475 -6.4371,1.34401 -13.2986,3.96129 h -0.7074 v -13.51083 q 3.8906,-1.06106 11.2473,-2.33433 7.3566,-1.27327 14.5011,-1.27327 8.347,0 14.5012,1.41474 6.2248,1.34401 10.752,4.66867 4.4565,3.25391 6.7908,8.41774 2.3343,5.16382 2.3343,12.80345 z m -13.2278,-19.45276 v -21.9993 q -6.0835,0.35369 -14.3597,1.06106 -8.2055,0.70738 -13.0157,2.05138 -5.7297,1.62696 -9.2666,5.09309 -3.5368,3.39539 -3.5368,9.40806 0,6.79078 4.1027,10.25691 4.1028,3.39539 12.5205,3.39539 7.003,0 12.8035,-2.68802 5.8004,-2.75875 10.7521,-6.57857 z"
               style="font-weight:normal;font-size:144.86999512px;font-family:Roboto;fill:#2b2a29"
               id="path3891" />
          </g>
        </g>
      </g>
    </g>
  </g>
</svg>
